PathFileType	4	(X/Y/Z) flx_0kg_2.trc																										
DataRate	CameraRate	NumFrames	NumMarkers	Units	OrigDataRate	OrigDataStartFrame	OrigNumFrames																					
100	100	24	9	mm	100	743	848																					
Frame#	Time	gu			centelbow			EpL			centpxt8			centijc7			ij			ts			aa			ai		
		X1	Y1	Z1	X2	Y2	Z2	X3	Y3	Z3	X4	Y4	Z4	X5	Y5	Z5	X6	Y6	Z6	X7	Y7	Z7	X8	Y8	Z8	X9	Y9	Z9  
742	7.42	-77.057	-10.126	170.008	-121.034	-252.214	191.077	-100.156	-249.805	215.525	-46.816	-153.158	-8.669	-46.816	31.938	-8.669	0	0	0	-134.216	24.526	49.398	-112.893	25.722	166.738	-142.256	-88.427	57.308
743	7.43	-77.107	-10.125	170.098	-121.016	-252.226	191.154	-100.147	-249.811	215.609	-46.816	-153.158	-8.669	-46.816	31.938	-8.669	0	0	0	-134.304	24.537	49.452	-113	25.703	166.796	-142.336	-88.419	57.33
744	7.44	-77.122	-10.104	170.144	-120.99	-252.211	191.21	-100.126	-249.79	215.67	-46.816	-153.158	-8.669	-46.816	31.938	-8.669	0	0	0	-134.338	24.582	49.548	-113.05	25.728	166.895	-142.371	-88.375	57.406
745	7.45	-77.153	-10.077	170.159	-120.961	-252.194	191.249	-100.099	-249.765	215.71	-46.816	-153.158	-8.669	-46.816	31.938	-8.669	0	0	0	-134.327	24.613	49.615	-113.048	25.753	166.964	-142.36	-88.345	57.467
746	7.46	-77.3	-10.06	170.18	-121.025	-252.19	191.284	-100.165	-249.752	215.745	-46.816	-153.158	-8.669	-46.816	31.938	-8.669	0	0	0	-134.324	24.635	49.598	-113.048	25.771	166.947	-142.354	-88.323	57.445
747	7.47	-77.496	-10.034	170.225	-121.142	-252.179	191.329	-100.282	-249.735	215.789	-46.816	-153.158	-8.669	-46.816	31.938	-8.669	0	0	0	-134.315	24.681	49.549	-113.035	25.811	166.898	-142.341	-88.278	57.389
748	7.48	-77.554	-10.017	170.264	-121.134	-252.173	191.372	-100.267	-249.725	215.826	-46.816	-153.158	-8.669	-46.816	31.938	-8.669	0	0	0	-134.279	24.697	49.576	-112.998	25.822	166.924	-142.307	-88.262	57.412
749	7.49	-77.432	-10.045	170.238	-120.939	-252.212	191.372	-100.059	-249.758	215.815	-46.816	-153.158	-8.669	-46.816	31.938	-8.669	0	0	0	-134.242	24.618	49.659	-112.968	25.737	167.009	-142.282	-88.341	57.492
750	7.5	-77.347	-10.111	170.139	-120.756	-252.292	191.318	-99.862	-249.829	215.748	-46.816	-153.158	-8.669	-46.816	31.938	-8.669	0	0	0	-134.238	24.483	49.69	-112.975	25.592	167.041	-142.293	-88.475	57.513
751	7.51	-77.52	-10.16	170.03	-120.801	-252.358	191.262	-99.899	-249.881	215.683	-46.816	-153.158	-8.669	-46.816	31.938	-8.669	0	0	0	-134.288	24.387	49.662	-113.04	25.489	167.017	-142.34	-88.572	57.477
752	7.52	-77.827	-10.138	170.002	-120.954	-252.36	191.287	-100.05	-249.865	215.705	-46.816	-153.158	-8.669	-46.816	31.938	-8.669	0	0	0	-134.36	24.382	49.614	-113.125	25.494	166.971	-142.376	-88.579	57.432
753	7.53	-77.954	-10.042	170.092	-120.924	-252.287	191.428	-100.02	-249.774	215.845	-46.816	-153.158	-8.669	-46.816	31.938	-8.669	0	0	0	-134.372	24.493	49.557	-113.134	25.634	166.913	-142.329	-88.471	57.391
754	7.54	-77.896	-9.921	170.195	-120.737	-252.184	191.584	-99.83	-249.656	215.995	-46.816	-153.158	-8.669	-46.816	31.938	-8.669	0	0	0	-134.332	24.659	49.546	-113.087	25.83	166.9	-142.236	-88.308	57.4
755	7.55	-77.881	-9.853	170.154	-120.629	-252.128	191.597	-99.711	-249.588	215.998	-46.816	-153.158	-8.669	-46.816	31.938	-8.669	0	0	0	-134.326	24.725	49.607	-113.085	25.912	166.962	-142.213	-88.242	57.475
756	7.56	-77.98	-9.857	169.984	-120.649	-252.142	191.475	-99.72	-249.594	215.866	-46.816	-153.158	-8.669	-46.816	31.938	-8.669	0	0	0	-134.399	24.641	49.671	-113.167	25.831	167.028	-142.303	-88.325	57.543
757	7.57	-78.13	-9.899	169.848	-120.726	-252.192	191.386	-99.789	-249.636	215.769	-46.816	-153.158	-8.669	-46.816	31.938	-8.669	0	0	0	-134.521	24.536	49.69	-113.294	25.73	167.048	-142.441	-88.427	57.569
758	7.58	-78.302	-9.927	169.857	-120.837	-252.226	191.45	-99.896	-249.66	215.828	-46.816	-153.158	-8.669	-46.816	31.938	-8.669	0	0	0	-134.596	24.529	49.709	-113.375	25.742	167.068	-142.507	-88.434	57.603
759	7.59	-78.423	-9.902	169.991	-120.919	-252.202	191.652	-99.973	-249.627	216.025	-46.816	-153.158	-8.669	-46.816	31.938	-8.669	0	0	0	-134.529	24.582	49.773	-113.319	25.822	167.133	-142.418	-88.381	57.689
760	7.6	-78.379	-9.861	170.128	-120.853	-252.159	191.855	-99.898	-249.577	216.22	-46.816	-153.158	-8.669	-46.816	31.938	-8.669	0	0	0	-134.336	24.588	49.842	-113.136	25.846	167.203	-142.22	-88.375	57.773
761	7.61	-78.206	-9.874	170.149	-120.652	-252.173	191.919	-99.684	-249.588	216.273	-46.816	-153.158	-8.669	-46.816	31.938	-8.669	0	0	0	-134.175	24.506	49.837	-112.977	25.765	167.199	-142.075	-88.455	57.772
762	7.62	-78.085	-9.922	170.062	-120.468	-252.23	191.862	-99.487	-249.64	216.204	-46.816	-153.158	-8.669	-46.816	31.938	-8.669	0	0	0	-134.179	24.403	49.759	-112.976	25.655	167.12	-142.098	-88.557	57.692
763	7.63	-78.103	-9.948	169.957	-120.407	-252.266	191.798	-99.414	-249.668	216.128	-46.816	-153.158	-8.669	-46.816	31.938	-8.669	0	0	0	-134.313	24.375	49.679	-113.097	25.628	167.038	-142.235	-88.584	57.614
764	7.64	-78.237	-9.965	169.873	-120.498	-252.285	191.768	-99.495	-249.681	216.089	-46.816	-153.158	-8.669	-46.816	31.938	-8.669	0	0	0	-134.451	24.427	49.648	-113.22	25.686	167.005	-142.361	-88.534	57.588
765	7.65	-78.451	-9.993	169.844	-120.696	-252.312	191.788	-99.686	-249.703	216.103	-46.816	-153.158	-8.669	-46.816	31.938	-8.669	0	0	0	-134.507	24.474	49.673	-113.272	25.735	167.028	-142.402	-88.487	57.611
